<?xml version="1.0" encoding="utf-8"?>
<!-- Generator: Adobe Illustrator 18.0.0, SVG Export Plug-In . SVG Version: 6.00 Build 0)  -->
<!DOCTYPE svg PUBLIC "-//W3C//DTD SVG 1.1//EN" "http://www.w3.org/Graphics/SVG/1.1/DTD/svg11.dtd">
<svg version="1.1" id="Layer_1" xmlns="http://www.w3.org/2000/svg" xmlns:xlink="http://www.w3.org/1999/xlink" x="0px" y="0px"
	 width="681.6px" height="335px" viewBox="0 0 681.6 335" enable-background="new 0 0 681.6 335" xml:space="preserve">
<g>
	<g>
		<path fill="#FFFFFF" d="M0,323.9v-28.6h56V40.7H0V12h136.9c109.6,0,179.3,59.1,179.3,152.5c0,94.6-65.4,159.4-179.3,159.4H0z
			 M140.7,295.3c94.6,0,142.6-53.5,142.6-131.3c0-76.6-57.3-123.3-146.3-123.3H88.4v254.6H140.7z"/>
	</g>
	<g>
		<defs>
			<polyline id="SVGID_1_" points="671.1,329.5 0,329.5 0,5.2 671.1,5.2 671.1,329.5 			"/>
		</defs>
		<clipPath id="SVGID_2_">
			<use xlink:href="#SVGID_1_"  overflow="visible"/>
		</clipPath>
		<g clip-path="url(#SVGID_2_)">
			<path fill="#FFFFFF" d="M671.1,167.1c0,90.9-64.7,162.5-159.4,162.5c-93.4,0-158.1-71.6-158.1-162.5
				c0-90.3,64.7-161.9,158.7-161.9C606.3,5.2,671.1,76.8,671.1,167.1z M637.4,167.1c0-75.9-51.7-132-125.1-132
				c-73.5,0-125.1,55.4-125.1,132c0,77.8,51.7,132.6,124.5,132.6C585.8,299.6,637.4,244.9,637.4,167.1z"/>
		</g>
	</g>
	<g>
		<path fill="#010101" d="M555.5,94.8h8.2V45.7h-16.2V55h-4.8V41.5h47.1V55h-4.8v-9.3h-16.2v49.1h8.2v4.4h-21.3V94.8z"/>
		<path fill="#010101" d="M593.5,39v-4h10.6v34.5c3.6-4.5,8.9-7.8,14.1-7.8c4.6,0,7.6,1.5,9.6,3.9c1.7,2.2,2.5,5.2,2.5,8.6v21h6.1v4
			h-16.8v-4h6.1V74.8c0-2.9-0.6-4.9-1.8-6.4c-1.4-1.8-3.7-2.5-6.5-2.5c-5.3,0-9.9,3.3-13.3,7.5v21.8h6.1v4h-16.8v-4h6.1V39H593.5z"
			/>
	</g>
	<g>
		<path fill="#010101" d="M645,81.8c0.7,9.3,6.3,14,15.2,14c5.1,0,8.3-1.6,12.7-4.1l-0.4,4.6c-3.8,2.5-8.5,3.7-12.9,3.7
			c-11.7,0-19.3-7.9-19.3-19c0-10.1,6.7-19.2,17.8-19.2c10.6,0,16.4,8.3,16.4,17.3c0,1.3-0.1,2.1-0.3,2.9H645z M645.1,77.9H670
			c-0.5-7.2-4.6-12.2-12.3-12.2C651.3,65.7,646,70.4,645.1,77.9z"/>
	</g>
	<g>
		<path fill="#010101" d="M48,179.5h7V136h-7v-7.1h21.7c20.5,0,33.3,11.1,33.3,28.3c0,17.5-12,29.4-33.8,29.4H48V179.5z M70.2,179.5
			c16.2,0,24.6-8.9,24.6-22.4c0-13.3-9.8-21.1-25.3-21.1H63v43.5H70.2z"/>
		<path fill="#010101" d="M117.4,170.1c1.1,7.2,6.3,10.7,13.7,10.7c4.8,0,8.9-1.5,13.4-4l-0.6,6.9c-3.9,2.5-8.8,3.6-14,3.6
			c-12.2,0-20.4-7.9-20.4-19.5c0-10.6,7.3-19.7,18.8-19.7c11.7,0,17.8,8.3,17.8,18c0,1.4-0.2,2.9-0.4,4H117.4z M117.4,164.5h21.1
			c-0.4-6.1-4-10.2-10.4-10.2C123,154.3,118.4,157.6,117.4,164.5z"/>
		<path fill="#010101" d="M178,161.2c-2.6,0-4.6-1.7-4.6-4.2c0-0.6,0.1-1.3,0.4-1.9c-1.5-0.7-3.7-1.1-6.1-1.1
			c-4.8,0-7.5,2.4-7.5,4.8c0,2.8,2.9,3.9,8.9,5.5c8.2,2.1,14.1,4.3,14.1,11.4c0,7.5-7.2,11.8-15.4,11.8c-5.7,0-11.5-1.9-14-4.5
			c-1.4-1.4-2.1-3-2.1-4.9c0-2.5,1.8-4.6,4.3-4.6c2.5,0,4.5,1.7,4.5,4.4c0,0.7-0.1,1.3-0.4,1.9c1.4,0.9,4.2,1.8,7.7,1.8
			c4.6,0,8.2-1.8,8.2-5.1c0-2.7-2.7-4-8.3-5.4c-9.7-2.5-14.8-4.8-14.8-11.6c0-5.8,5.2-11.3,14.8-11.3c4.9,0,9.8,1.6,12.3,4
			c1.3,1.3,1.9,2.9,1.9,4.6C182,159.4,180.3,161.2,178,161.2z"/>
		<path fill="#010101" d="M189.1,180.3h6.1v-25h-6.1v-6.5h13.7v31.5h6.1v6.3h-19.7V180.3z M192.7,135.3c0-3,2.5-5.4,5.5-5.4
			c2.9,0,5.4,2.5,5.4,5.4c0,3.1-2.6,5.5-5.5,5.5C195.2,140.8,192.7,138.3,192.7,135.3z"/>
	</g>
	<g>
		<path fill="#010101" d="M249.9,187.4c0,4.7-1.2,8.4-3.5,11.1c-3.2,3.9-8.3,5.6-14.3,5.6c-6.2,0-11.2-1.9-13.7-4.4
			c-1.4-1.4-2-2.9-2-4.6c0-2.6,1.9-4.9,4.7-4.9c2.5,0,4.4,1.8,4.4,4.3c0,0.7-0.2,1.5-0.5,2.1c1.3,0.5,3.5,1.2,6.7,1.2
			c3.6,0,6.8-1.1,8.8-3.6c1.2-1.6,1.9-3.9,1.9-6.9v-6.6c-3,3.1-6.4,5.4-11.8,5.4c-9.7,0-17.6-7.6-17.6-18.8
			c0-10.4,7.6-19.3,18.3-19.3c5,0,8.8,1.9,11.6,4.5v-3.8h13.1v6.5h-5.9V187.4z M220.5,167.3c0,7.5,4.8,12.4,11.5,12.4
			c4.1,0,7.5-1.9,10.3-4.7v-16.6c-2.5-2.1-5.8-3.7-10.1-3.7C225.4,154.7,220.5,159.7,220.5,167.3z"/>
		<path fill="#010101" d="M273.9,155.4c3.6-3.9,8.3-7.3,13.8-7.3c4.7,0,8,1.8,9.9,4.8c1.2,2.1,1.9,4.7,1.9,7.9v19.5h5.9v6.3h-19
			v-6.3h5.6v-17.8c0-1.8-0.3-3.3-0.9-4.5c-1.1-2-2.9-3-5.6-3c-4.1,0-8.1,2.5-11.3,5.7v19.6h5.6v6.3h-19v-6.3h5.9v-25h-5.9v-6.5h13.1
			V155.4z"/>
	</g>
	<g>
		<path fill="#010101" d="M331.5,157.7c0-16.9,12.3-29.9,29.6-29.9c17,0,29.1,13.1,29.1,29.9c0,16.9-12.3,29.9-29.6,29.9
			C343.6,187.6,331.5,174.6,331.5,157.7z M382,157.7c0-12.9-8.9-22.6-21.1-22.6c-12.4,0-21.2,9.6-21.2,22.6
			c0,12.9,8.9,22.5,21.2,22.5C373.2,180.3,382,170.7,382,157.7z"/>
		<path fill="#010101" d="M407,182.8l-1.9,3.9h-4.9v-57.8h-6v-6.5h13.5v31.1c3-3,6.6-5.4,12.1-5.4c9.9,0,17.9,8,17.9,19.6
			c0,10.9-7.9,19.7-18.7,19.7C414.1,187.3,410.2,185.5,407,182.8z M429.9,167.6c0-8-5-13-11.6-13c-4.3,0-7.8,2-10.6,4.8v17.6
			c2.7,2,6.1,3.6,10.4,3.6C424.5,180.7,429.9,175.8,429.9,167.6z"/>
		<path fill="#010101" d="M469.7,161.2c-2.6,0-4.6-1.7-4.6-4.2c0-0.6,0.1-1.3,0.4-1.9c-1.5-0.7-3.7-1.1-6.1-1.1
			c-4.8,0-7.5,2.4-7.5,4.8c0,2.8,2.9,3.9,9,5.5c8.2,2.1,14.1,4.3,14.1,11.4c0,7.5-7.2,11.8-15.4,11.8c-5.7,0-11.5-1.9-14-4.5
			c-1.4-1.4-2.1-3-2.1-4.9c0-2.5,1.8-4.6,4.3-4.6c2.5,0,4.5,1.7,4.5,4.4c0,0.7-0.1,1.3-0.4,1.9c1.4,0.9,4.2,1.8,7.7,1.8
			c4.6,0,8.2-1.8,8.2-5.1c0-2.7-2.7-4-8.3-5.4c-9.7-2.5-14.8-4.8-14.8-11.6c0-5.8,5.2-11.3,14.8-11.3c4.9,0,9.8,1.6,12.3,4
			c1.3,1.3,1.9,2.9,1.9,4.6C473.7,159.4,472.1,161.2,469.7,161.2z"/>
		<path fill="#010101" d="M488.6,170.1c1.1,7.2,6.3,10.7,13.7,10.7c4.8,0,9-1.5,13.4-4l-0.6,6.9c-3.9,2.5-8.8,3.6-14,3.6
			c-12.2,0-20.4-7.9-20.4-19.5c0-10.6,7.3-19.7,18.8-19.7c11.7,0,17.8,8.3,17.8,18c0,1.4-0.2,2.9-0.4,4H488.6z M488.6,164.5h21.1
			c-0.4-6.1-4-10.2-10.4-10.2C494.2,154.3,489.5,157.6,488.6,164.5z"/>
	</g>
	<g>
		<path fill="#010101" d="M553.3,153.6c0,2.7-2.2,5.1-4.8,5.1c-2.5,0-4.3-1.6-5-3.2c-2.8,0.9-6.1,4-7.9,7.6v17.2h6.9v6.3h-20.3v-6.3
			h5.9v-25h-5.9v-6.5h13.1v8.6c3-5.2,7.4-9.3,11.8-9.3C551.2,148.1,553.3,150.6,553.3,153.6z"/>
		<path fill="#010101" d="M561.3,155.3h-4.7v-6.5h18.3v6.2h-5.8l10.3,22.7l10.3-22.7h-6.1v-6.2h18.3v6.5h-4.7l-15.5,32.4h-4.8
			L561.3,155.3z"/>
	</g>
	<g>
		<path fill="#010101" d="M612.5,170.1c1.1,7.2,6.3,10.7,13.7,10.7c4.8,0,9-1.5,13.4-4l-0.6,6.9c-3.9,2.5-8.8,3.6-14,3.6
			c-12.2,0-20.4-7.9-20.4-19.5c0-10.6,7.3-19.7,18.8-19.7c11.7,0,17.8,8.3,17.8,18c0,1.4-0.2,2.9-0.4,4H612.5z M612.5,164.5h21.1
			c-0.4-6.1-4-10.2-10.4-10.2C618.2,154.3,613.5,157.6,612.5,164.5z"/>
		<path fill="#010101" d="M677.3,153.6c0,2.7-2.2,5.1-4.8,5.1c-2.5,0-4.3-1.6-5-3.2c-2.8,0.9-6.1,4-7.9,7.6v17.2h6.9v6.3h-20.3v-6.3
			h5.9v-25h-5.9v-6.5h13.1v8.6c3-5.2,7.4-9.3,11.8-9.3C675.2,148.1,677.3,150.6,677.3,153.6z"/>
	</g>
	<g>
		<path fill="#010101" d="M454.6,245.7c0-18.5,14.1-30.5,29.7-30.5c12.8,0,21.3,7.3,21.3,13.1c0,2.8-1.8,4.7-4.2,4.7
			c-2.2,0-3.9-1.8-3.9-3.9c0-1.6,0.8-2.7,1.9-3.4c-2.5-2.9-8.2-5.9-15.3-5.9c-14.7,0-24.5,11.8-24.5,26.1
			c0,14.9,10.6,24.9,23.5,24.9c6.8,0,12.9-2.3,18.5-6.3V251H485v-4.3h21.6V274h-4.7v-5.3c-5.4,4-11.3,6.3-19,6.3
			C468.2,275,454.6,264.1,454.6,245.7z"/>
		<path fill="#010101" d="M542.3,240.6c0,2-1.6,3.8-3.6,3.8c-1.9,0-3.4-1.4-3.9-3c-2.9,0.8-6.3,4.3-8.2,8.2V270h7.2v4h-17.8v-4h6.1
			v-28.8h-6.1v-4h10.4v8.3c2.6-5.1,7.4-9,11-9C540.6,236.4,542.3,238.5,542.3,240.6z"/>
		<path fill="#010101" d="M544.9,255.6c0-10.6,7.5-19.1,18.7-19.1s18.7,8.5,18.7,19.1s-7.5,19.1-18.7,19.1S544.9,266.2,544.9,255.6z
			 M577.5,255.6c0-8.8-5.7-15.1-14-15.1c-8.2,0-14,6.3-14,15.1c0,8.9,5.7,15.1,14,15.1C571.8,270.7,577.5,264.4,577.5,255.6z"/>
		<path fill="#010101" d="M594.5,269.8c-1.1-2.1-1.7-4.7-1.7-7.6v-21h-6.1v-4h10.6v24.4c0,2.3,0.4,4.1,1.1,5.5
			c1.2,2.4,3.4,3.4,6.8,3.4c5.3,0,9.7-3.5,13.3-7.5v-21.8h-6.1v-4H623V270h6.1v4h-10.4v-7.3c-3.4,4.4-9,8-14.2,8
			C599.4,274.7,596.2,272.9,594.5,269.8z"/>
	</g>
	<g>
		<path fill="#010101" d="M632.7,287.2h6.1v-46h-6.1v-4h10.4v5.7c3.2-3.9,7.3-6.4,13.1-6.4c9.7,0,17.7,7.5,17.7,18.9
			c0,10.4-7,19.4-18.6,19.4c-4.5,0-8.9-1.8-12-4.6v17h7.6v4h-18.3V287.2z M669.3,255.4c0.1-8.8-5.5-14.9-13.2-14.9
			c-5.4,0-9.4,2.6-12.6,6.2v19.4c3,2.6,6.8,4.6,12.2,4.6C663.8,270.7,669.2,263.9,669.3,255.4z"/>
	</g>
</g>
</svg>
